<?xml version="1.0" encoding="utf-8"?>
<!-- Generator: Adobe Illustrator 18.0.0, SVG Export Plug-In . SVG Version: 6.00 Build 0)  -->
<!DOCTYPE svg PUBLIC "-//W3C//DTD SVG 1.1//EN" "http://www.w3.org/Graphics/SVG/1.1/DTD/svg11.dtd">
<svg version="1.1" id="Calque_1" xmlns="http://www.w3.org/2000/svg" xmlns:xlink="http://www.w3.org/1999/xlink" x="0px" y="0px"
	 viewBox="0 0 32 32" enable-background="new 0 0 32 32" xml:space="preserve">
<g>
	<path d="M30.8,10.7c-0.8,3.7-4.3,6.2-8.1,6c-0.6,0-1.1-0.1-1.7-0.3L7.4,30.1c-0.6,0.6-1.9,1.1-2.8,0.9c-2.4-0.5-3.6-2.2-3.6-4
		c0-1,0.4-2,1.2-2.8l13.3-13.2c-0.1-0.5-0.2-1.1-0.3-1.6c-0.2-3.7,2.3-7.2,6-8.1c1.1-0.2,2.1-0.3,3.1-0.1c0.8,0.1,1.1,1.1,0.5,1.7
		l-3.3,3.3c-0.4,0.4-0.4,1,0,1.4l2.8,2.8c0.4,0.4,1,0.4,1.4,0l3.4-3.4c0.6-0.6,1.5-0.3,1.7,0.5C31.1,8.4,31,9.6,30.8,10.7z"/>
</g>
</svg>
