<?xml version="1.0" encoding="utf-8"?>
<!-- Generator: Adobe Illustrator 18.0.0, SVG Export Plug-In . SVG Version: 6.00 Build 0)  -->
<!DOCTYPE svg PUBLIC "-//W3C//DTD SVG 1.1//EN" "http://www.w3.org/Graphics/SVG/1.1/DTD/svg11.dtd">
<svg version="1.1" id="Calque_1" xmlns="http://www.w3.org/2000/svg" xmlns:xlink="http://www.w3.org/1999/xlink" x="0px" y="0px"
	 viewBox="0 0 16 16" enable-background="new 0 0 16 16" xml:space="preserve">
<path d="M4.5,6.7L4.1,8H3l1.6-4.4C4.8,3.2,5.1,3,5.5,3h0c0.4,0,0.7,0.2,0.9,0.6L8,8H6.8L6.4,6.7L4.5,6.7z M6.2,6L5.5,4h0L4.8,6H6.2z
	"/>
<path d="M0,2c0-1.1,0.9-2,2-2h7c1.1,0,2,0.9,2,2v2.4C11,4.7,11.3,5,11.6,5H14c1.1,0,2,0.9,2,2v7c0,1.1-0.9,2-2,2H7c-1.1,0-2-0.9-2-2
	v-2.4C5,11.3,4.7,11,4.4,11H2c-1.1,0-2-0.9-2-2V2z M2,1C1.4,1,1,1.4,1,2v7c0,0.6,0.4,1,1,1h7c0.6,0,1-0.4,1-1V2c0-0.6-0.4-1-1-1H2z
	 M9.1,11c0.2,0.3,0.4,0.6,0.6,0.8c-0.7,0.6-1.7,1-2.8,1.3c0.2,0.2,0.5,0.6,0.6,0.9c1-0.3,1.8-0.7,2.5-1.2c0.2-0.2,0.5-0.2,0.8,0
	c0.7,0.5,1.5,0.9,2.6,1.2c0.1-0.3,0.4-0.7,0.6-0.9c-0.8-0.2-1.6-0.5-2.2-0.9c-0.3-0.2-0.4-0.6-0.2-0.9c0.5-0.6,0.9-1.4,1.2-2.3H14V8
	h-3v1h0.8c-0.3,0.8-0.7,1.5-1.3,2.1c-0.1-0.2-0.3-0.3-0.4-0.5C9.8,10.9,9.5,11,9.1,11"/>
</svg>
